<mxfile host="app.diagrams.net" modified="2024-05-27T17:46:23.904Z" agent="Mozilla/5.0 (Windows NT 10.0; Win64; x64) AppleWebKit/537.36 (KHTML, like Gecko) Chrome/125.0.0.0 Safari/537.36" version="24.4.9" etag="z5Ran2iRo2D3Z61v3AlV" type="github">
  <diagram name="PÃ¡gina-1" id="E3bMzzCmY1Trt0Km2Rc1">
    <mxGraphModel>
      <root>
        <mxCell id="0" />
        <mxCell id="1" parent="0" />
      </root>
    </mxGraphModel>
  </diagram>
</mxfile>
